<?xml version="1.0" standalone="no"?>
<!DOCTYPE svg PUBLIC "-//W3C//DTD SVG 20010904//EN"
 "http://www.w3.org/TR/2001/REC-SVG-20010904/DTD/svg10.dtd">
<svg version="1.0" xmlns="http://www.w3.org/2000/svg"
 width="700.000000pt" height="700.000000pt" viewBox="0 0 700.000000 700.000000"
 preserveAspectRatio="xMidYMid meet">
<metadata>
Created by potrace 1.11, written by Peter Selinger 2001-2013
</metadata>
<g transform="translate(0.000000,700.000000) scale(0.100000,-0.100000)"
fill="#000000" stroke="none">
<path d="M1238 5864 c-2 -1 -25 -5 -53 -9 -265 -35 -518 -192 -670 -415 -121
-178 -177 -375 -170 -590 2 -58 6 -116 9 -130 4 -14 9 -38 12 -54 28 -156 133
-345 264 -476 202 -202 472 -305 750 -286 112 8 127 10 202 30 177 48 360 161
475 292 l49 57 42 -27 c23 -14 43 -26 46 -26 2 0 52 -28 112 -63 60 -35 134
-77 164 -94 30 -17 120 -68 200 -113 80 -46 165 -94 190 -108 25 -14 90 -51
145 -82 113 -65 126 -72 323 -183 78 -44 142 -83 142 -86 0 -6 -77 -51 -454
-265 -28 -16 -166 -94 -306 -174 -140 -80 -275 -156 -300 -170 -25 -14 -103
-58 -175 -99 l-130 -75 -52 60 c-55 62 -165 151 -243 195 -53 31 -192 87 -229
93 -14 3 -34 7 -43 10 -44 13 -72 16 -188 20 -232 6 -438 -59 -625 -199 -154
-116 -290 -317 -344 -510 -31 -108 -36 -154 -35 -292 4 -522 438 -956 959
-959 100 -1 202 10 240 24 14 5 25 7 25 5 0 -12 173 60 245 101 106 61 187
129 266 224 139 165 217 370 224 590 4 131 -6 209 -42 328 -13 46 -23 85 -21
86 3 2 369 213 458 264 19 11 134 77 255 147 121 71 233 135 250 144 16 9 32
19 35 23 3 4 17 12 30 17 14 6 32 15 40 21 24 16 221 130 225 130 2 0 33 18
69 40 36 22 68 40 72 40 3 0 17 9 30 19 l24 19 98 -55 c53 -31 117 -67 142
-81 209 -117 439 -248 460 -261 14 -8 41 -24 60 -35 19 -10 179 -101 355 -201
176 -100 347 -197 380 -215 33 -18 76 -43 95 -55 19 -12 40 -24 45 -26 6 -2
150 -83 320 -180 171 -98 386 -220 479 -273 l170 -96 132 0 132 0 32 36 32 37
-44 27 c-23 14 -68 40 -98 57 -30 17 -154 88 -275 158 -121 70 -235 136 -253
147 -28 15 -633 365 -1132 653 -555 321 -711 411 -808 465 -34 19 -62 37 -62
40 0 3 21 17 48 31 26 14 279 160 562 324 283 164 529 305 545 315 17 9 278
160 580 335 303 175 569 328 592 341 76 43 338 196 341 199 8 7 -62 74 -93 89
-45 21 -127 22 -187 2 -25 -9 -174 -89 -330 -178 -155 -88 -303 -172 -328
-186 -25 -14 -220 -125 -435 -247 -336 -191 -543 -309 -735 -417 -25 -14 -106
-60 -180 -103 -74 -42 -157 -90 -185 -105 -27 -16 -138 -78 -245 -140 -168
-97 -198 -111 -220 -103 -14 5 -230 128 -480 273 -250 145 -466 269 -480 277
-14 7 -135 77 -270 156 -197 115 -245 146 -243 162 1 11 14 63 29 115 23 81
27 115 28 235 1 190 -32 324 -120 485 -121 220 -337 395 -575 464 -59 17 -66
19 -139 31 -42 7 -227 15 -232 9z m247 -228 c254 -56 475 -250 559 -491 36
-104 47 -170 45 -272 -2 -85 -18 -188 -37 -238 -5 -11 -28 -60 -53 -110 -35
-72 -61 -107 -129 -176 -101 -101 -238 -186 -331 -202 -13 -3 -42 -9 -64 -15
-36 -8 -70 -12 -155 -15 -41 -2 -158 13 -185 23 -14 5 -36 12 -49 14 -35 6
-164 73 -216 111 -50 37 -133 122 -172 175 -58 81 -117 229 -133 335 -7 48 -8
196 -1 216 3 8 7 31 10 51 13 89 68 207 143 306 105 138 248 232 423 278 70
19 105 22 200 20 63 -2 129 -7 145 -10z m-49 -2760 c171 -28 302 -94 425 -216
97 -96 153 -187 196 -315 31 -97 41 -281 19 -380 -55 -248 -201 -435 -422
-540 -205 -98 -464 -96 -670 5 -310 152 -481 507 -410 849 44 208 201 415 391
513 156 80 314 108 471 84z"/>
</g>
</svg>
